# xmcd CD database file
#
# Track frame offsets:
#	150
#	15764
#	32090
#	52594
#	72669
#	93580
#	109614
#	132714
#	142300
#	154000
#
# Disc length: 2347 seconds
#
# Revision: 2
# Processed by: cddbd v1.5.2PL0 Copyright (c) Steve Scherf et al.
# Submitted via: CDex 1.70beta2
#
DISCID=8509290a
DTITLE=Jason Falkner - Bedtime With the Beatles Part II
DYEAR=2008
DGENRE=Instrumental
TTITLE0=Norwegian Wood
TTITLE1=Something
TTITLE2=She's Leaving Home
TTITLE3=Penny Lane
TTITLE4=Lucy in the Sky with Diamonds
TTITLE5=Here Comes the Sun
TTITLE6=Hey Jude
TTITLE7=I Will
TTITLE8=Yesterday
TTITLE9=Good Night
EXTD=YEAR: 2008
EXTT0=
EXTT1=
EXTT2=
EXTT3=
EXTT4=
EXTT5=
EXTT6=
EXTT7=
EXTT8=
EXTT9=
PLAYORDER=
